<?xml version="1.0" encoding="UTF-8" standalone="no"?>
<svg
   width="149.403pt"
   height="249.005pt"
   viewBox="0 0 149.403 249.005"
   version="1.1"
   id="svg44"
   sodipodi:docname="position.svg"
   inkscape:version="1.4.3 (0d15f75042, 2025-12-25)"
   inkscape:export-filename="position.pdf"
   inkscape:export-xdpi="96"
   inkscape:export-ydpi="96"
   xmlns:inkscape="http://www.inkscape.org/namespaces/inkscape"
   xmlns:sodipodi="http://sodipodi.sourceforge.net/DTD/sodipodi-0.dtd"
   xmlns:xlink="http://www.w3.org/1999/xlink"
   xmlns="http://www.w3.org/2000/svg"
   xmlns:svg="http://www.w3.org/2000/svg">
  <sodipodi:namedview
     id="namedview44"
     pagecolor="#ffffff"
     bordercolor="#000000"
     borderopacity="0.25"
     inkscape:showpageshadow="2"
     inkscape:pageopacity="0.0"
     inkscape:pagecheckerboard="0"
     inkscape:deskcolor="#d1d1d1"
     inkscape:document-units="pt"
     inkscape:zoom="1.5550105"
     inkscape:cx="192.92474"
     inkscape:cy="142.44277"
     inkscape:window-width="1872"
     inkscape:window-height="1248"
     inkscape:window-x="0"
     inkscape:window-y="0"
     inkscape:window-maximized="1"
     inkscape:current-layer="svg44" />
  <defs
     id="defs31">
    <rect
       x="47.125914"
       y="207.20441"
       width="28.799169"
       height="14.212577"
       id="rect49" />
    <rect
       x="80.226258"
       y="255.82639"
       width="37.588526"
       height="12.342501"
       id="rect46" />
    <rect
       x="122.35749"
       y="234.81224"
       width="27.694081"
       height="17.119977"
       id="rect43" />
    <rect
       x="78.420669"
       y="256.27283"
       width="28.704924"
       height="15.09228"
       id="rect38" />
    <clipPath
       id="clip-0">
      <path
         clip-rule="nonzero"
         d="M 0 0 L 149.402344 0 L 149.402344 249.003906 L 0 249.003906 Z M 0 0 "
         id="path1" />
    </clipPath>
    <clipPath
       id="clip-1">
      <path
         clip-rule="nonzero"
         d="M 0 0 L 118 0 L 118 249.003906 L 0 249.003906 Z M 0 0 "
         id="path2" />
    </clipPath>
    <clipPath
       id="clip-2">
      <path
         clip-rule="nonzero"
         d="M 0 0 L 117.636719 0 L 117.636719 249.003906 L 0 249.003906 Z M 0 0 "
         id="path3" />
    </clipPath>
    <clipPath
       id="clip-3">
      <path
         clip-rule="nonzero"
         d="M 0 24 L 33 24 L 33 26 L 0 26 Z M 0 24 "
         id="path4" />
    </clipPath>
    <clipPath
       id="clip-4">
      <path
         clip-rule="nonzero"
         d="M 0 223 L 33 223 L 33 225 L 0 225 Z M 0 223 "
         id="path5" />
    </clipPath>
    <clipPath
       id="clip-5">
      <path
         clip-rule="nonzero"
         d="M 94 13 L 117.636719 13 L 117.636719 236 L 94 236 Z M 94 13 "
         id="path6" />
    </clipPath>
    <clipPath
       id="clip-6">
      <path
         clip-rule="nonzero"
         d="M 0 212 L 44 212 L 44 249.003906 L 0 249.003906 Z M 0 212 "
         id="path7" />
    </clipPath>
    <clipPath
       id="clip-7">
      <path
         clip-rule="nonzero"
         d="M 0 0 L 44 0 L 44 37 L 0 37 Z M 0 0 "
         id="path8" />
    </clipPath>
    <clipPath
       id="clip-8">
      <path
         clip-rule="nonzero"
         d="M 0 212 L 117.636719 212 L 117.636719 249.003906 L 0 249.003906 Z M 0 212 "
         id="path9" />
    </clipPath>
    <clipPath
       id="clip-9">
      <path
         clip-rule="nonzero"
         d="M 0 0 L 117.636719 0 L 117.636719 37 L 0 37 Z M 0 0 "
         id="path10" />
    </clipPath>
    <clipPath
       id="clip-10">
      <path
         clip-rule="nonzero"
         d="M 20 13 L 117.636719 13 L 117.636719 37 L 20 37 Z M 20 13 "
         id="path11" />
    </clipPath>
    <clipPath
       id="clip-11">
      <path
         clip-rule="nonzero"
         d="M 20 70 L 117.636719 70 L 117.636719 94 L 20 94 Z M 20 70 "
         id="path12" />
    </clipPath>
    <clipPath
       id="clip-12">
      <path
         clip-rule="nonzero"
         d="M 20 127 L 117.636719 127 L 117.636719 150 L 20 150 Z M 20 127 "
         id="path13" />
    </clipPath>
    <clipPath
       id="clip-13">
      <path
         clip-rule="nonzero"
         d="M 20 184 L 117.636719 184 L 117.636719 207 L 20 207 Z M 20 184 "
         id="path14" />
    </clipPath>
    <clipPath
       id="clip-14">
      <path
         clip-rule="nonzero"
         d="M 11 0 L 99 0 L 99 2 L 11 2 Z M 11 0 "
         id="path15" />
    </clipPath>
    <clipPath
       id="clip-15">
      <path
         clip-rule="nonzero"
         d="M 11 247 L 107 247 L 107 249.003906 L 11 249.003906 Z M 11 247 "
         id="path16" />
    </clipPath>
    <clipPath
       id="clip-16">
      <rect
         x="0"
         y="0"
         width="118"
         height="250"
         id="rect16" />
    </clipPath>
    <g
       id="source-5"
       clip-path="url(#clip-16)">
      <g
         clip-path="url(#clip-2)"
         id="g17">
        <path
           fill-rule="nonzero"
           fill="rgb(100%, 100%, 100%)"
           fill-opacity="1"
           d="M 117.636719 385.042969 L 117.636719 -136.039062 L -195.007812 -136.039062 L -195.007812 385.042969 Z M 117.636719 385.042969 "
           id="path17" />
      </g>
      <g
         clip-path="url(#clip-3)"
         id="g18">
        <path
           fill="none"
           stroke-width="0.3985"
           stroke-linecap="butt"
           stroke-linejoin="miter"
           stroke="rgb(0%, 0%, 0%)"
           stroke-opacity="1"
           stroke-dasharray="0.3985 1.99255"
           stroke-miterlimit="10"
           d="M 49.615734 -35.438703 L 49.615734 35.43825 "
           transform="matrix(0, -2, -2, 0, -38.686, 124.501)"
           id="path18" />
      </g>
      <g
         clip-path="url(#clip-4)"
         id="g19">
        <path
           fill="none"
           stroke-width="0.3985"
           stroke-linecap="butt"
           stroke-linejoin="miter"
           stroke="rgb(0%, 0%, 0%)"
           stroke-opacity="1"
           stroke-dasharray="0.3985 1.99255"
           stroke-miterlimit="10"
           d="M -49.616687 -35.438703 L -49.616687 35.43825 "
           transform="matrix(0, -2, -2, 0, -38.686, 124.501)"
           id="path19" />
      </g>
      <path
         fill="none"
         stroke-width="0.3985"
         stroke-linecap="butt"
         stroke-linejoin="miter"
         stroke="rgb(0%, 0%, 0%)"
         stroke-opacity="1"
         stroke-miterlimit="10"
         d="M -49.616687 -35.438703 L 49.615734 -35.438703 "
         transform="matrix(0, -2, -2, 0, -38.686, 124.501)"
         id="path20" />
      <g
         clip-path="url(#clip-5)"
         id="g21">
        <path
           fill="none"
           stroke-width="0.3985"
           stroke-linecap="butt"
           stroke-linejoin="miter"
           stroke="rgb(0%, 0%, 0%)"
           stroke-opacity="1"
           stroke-miterlimit="10"
           d="M -49.618641 -77.964094 L 49.619641 -72.292219 "
           transform="matrix(0, -2, -2, 0, -38.686, 124.501)"
           id="path21" />
      </g>
      <g
         clip-path="url(#clip-6)"
         id="g22">
        <path
           fill="none"
           stroke-width="0.3985"
           stroke-linecap="butt"
           stroke-linejoin="miter"
           stroke="rgb(0%, 0%, 0%)"
           stroke-opacity="1"
           stroke-miterlimit="10"
           d="M -49.616687 -35.438703 C -69.187 -35.438703 -85.052234 -19.573469 -85.052234 -0.00120312 C -85.052234 19.569109 -69.187 35.434344 -49.616687 35.434344 "
           transform="matrix(0, -2, -2, 0, -38.686, 124.501)"
           id="path22" />
      </g>
      <g
         clip-path="url(#clip-7)"
         id="g23">
        <path
           fill="none"
           stroke-width="0.3985"
           stroke-linecap="butt"
           stroke-linejoin="miter"
           stroke="rgb(0%, 0%, 0%)"
           stroke-opacity="1"
           stroke-miterlimit="10"
           d="M 49.615734 35.43825 C 69.186047 35.43825 85.051281 19.573016 85.051281 0.00270313 C 85.051281 -19.569562 69.186047 -35.432844 49.615734 -35.432844 "
           transform="matrix(0, -2, -2, 0, -38.686, 124.501)"
           id="path23" />
      </g>
      <g
         clip-path="url(#clip-8)"
         id="g24">
        <path
           fill="none"
           stroke-width="0.3985"
           stroke-linecap="butt"
           stroke-linejoin="miter"
           stroke="rgb(0%, 0%, 0%)"
           stroke-opacity="1"
           stroke-miterlimit="10"
           d="M -49.618641 -77.964094 C -91.108875 -77.964094 -124.741687 -44.329328 -124.741687 -2.839094 C -124.741687 38.651141 -91.108875 72.283953 -49.618641 72.283953 "
           transform="matrix(0, -2, -2, 0, -38.686, 124.501)"
           id="path24" />
      </g>
      <g
         clip-path="url(#clip-9)"
         id="g25">
        <path
           fill="none"
           stroke-width="0.3985"
           stroke-linecap="butt"
           stroke-linejoin="miter"
           stroke="rgb(0%, 0%, 0%)"
           stroke-opacity="1"
           stroke-miterlimit="10"
           d="M 49.619641 77.963641 C 91.109875 77.963641 124.742688 44.330828 124.742688 2.840594 C 124.742688 -38.649641 91.109875 -72.284406 49.619641 -72.284406 "
           transform="matrix(0, -2, -2, 0, -38.686, 124.501)"
           id="path25" />
      </g>
      <g
         clip-path="url(#clip-10)"
         id="g26">
        <path
           fill="none"
           stroke-width="0.3985"
           stroke-linecap="butt"
           stroke-linejoin="miter"
           stroke="rgb(0%, 0%, 0%)"
           stroke-opacity="1"
           stroke-miterlimit="10"
           d="M 49.615734 -35.438703 L 49.619641 -72.292219 "
           transform="matrix(0, -2, -2, 0, -38.686, 124.501)"
           id="path26" />
      </g>
      <g
         clip-path="url(#clip-11)"
         id="g27">
        <path
           fill="none"
           stroke-width="0.3985"
           stroke-linecap="butt"
           stroke-linejoin="miter"
           stroke="rgb(0%, 0%, 0%)"
           stroke-opacity="1"
           stroke-dasharray="2.98883 2.98883"
           stroke-miterlimit="10"
           d="M 21.271984 -73.923078 L 21.268078 -35.440656 "
           transform="matrix(0, -2, -2, 0, -38.686, 124.501)"
           id="path27" />
      </g>
      <g
         clip-path="url(#clip-12)"
         id="g28">
        <path
           fill="none"
           stroke-width="0.3985"
           stroke-linecap="butt"
           stroke-linejoin="miter"
           stroke="rgb(0%, 0%, 0%)"
           stroke-opacity="1"
           stroke-dasharray="2.98883 2.98883"
           stroke-miterlimit="10"
           d="M -7.083484 -75.542219 L -7.081531 -35.440656 "
           transform="matrix(0, -2, -2, 0, -38.686, 124.501)"
           id="path28" />
      </g>
      <g
         clip-path="url(#clip-13)"
         id="g29">
        <path
           fill="none"
           stroke-width="0.3985"
           stroke-linecap="butt"
           stroke-linejoin="miter"
           stroke="rgb(0%, 0%, 0%)"
           stroke-opacity="1"
           stroke-miterlimit="10"
           d="M -35.438953 -77.163312 L -35.431141 -35.440656 "
           transform="matrix(0, -2, -2, 0, -38.686, 124.501)"
           id="path29" />
      </g>
      <g
         clip-path="url(#clip-14)"
         id="g30">
        <path
           fill="none"
           stroke-width="0.3985"
           stroke-linecap="butt"
           stroke-linejoin="miter"
           stroke="rgb(0%, 0%, 0%)"
           stroke-opacity="1"
           stroke-dasharray="2.98883 2.98883"
           stroke-miterlimit="10"
           d="M 67.328625 -30.684797 L 85.951672 -62.895734 "
           transform="matrix(0, -2, -2, 0, -38.686, 124.501)"
           id="path30" />
      </g>
      <g
         clip-path="url(#clip-15)"
         id="g31">
        <path
           fill="none"
           stroke-width="0.3985"
           stroke-linecap="butt"
           stroke-linejoin="miter"
           stroke="rgb(0%, 0%, 0%)"
           stroke-opacity="1"
           stroke-dasharray="2.98883 2.98883"
           stroke-miterlimit="10"
           d="M -67.327625 -30.68675 L -88.417469 -67.175031 "
           transform="matrix(0, -2, -2, 0, -38.686, 124.501)"
           id="path31" />
      </g>
    </g>
  </defs>
  <g
     clip-path="url(#clip-0)"
     id="g32"
     transform="matrix(1.6822263,0,0,1.4598172,-47.406547,-93.831914)">
    <path
       fill-rule="nonzero"
       fill="#ffffff"
       fill-opacity="1"
       d="M 0,249.00391 H 149.40234 V 0 H 0 Z m 0,0"
       id="path32" />
  </g>
  <g
     clip-path="url(#clip-1)"
     id="g33"
     transform="matrix(1.6822263,0,0,1.4598172,-47.406547,-93.831914)">
    <use
       xlink:href="#source-5"
       id="use32" />
  </g>
  <path
     fill-rule="nonzero"
     fill="#ccccff"
     fill-opacity="1"
     stroke-width="1.33263"
     stroke-linecap="butt"
     stroke-linejoin="miter"
     stroke="#333333"
     stroke-opacity="1"
     stroke-miterlimit="10"
     d="m 67.172249,154.40053 c 0,-5.67961 -5.302953,-10.28143 -11.847868,-10.28143 -6.544911,0 -11.847868,4.60182 -11.847868,10.28143 0,5.67961 5.302957,10.28145 11.847868,10.28145 6.544915,0 11.847868,-4.60184 11.847868,-10.28145 z m 0,0"
     id="path33" />
  <path
     fill-rule="nonzero"
     fill="#ccccff"
     fill-opacity="1"
     stroke-width="1.33263"
     stroke-linecap="butt"
     stroke-linejoin="miter"
     stroke="#333333"
     stroke-opacity="1"
     stroke-miterlimit="10"
     d="m 57.462134,175.05639 c 0,-5.6796 -5.30295,-10.28143 -11.84786,-10.28143 -6.544909,0 -11.847866,4.60183 -11.847866,10.28143 0,5.67962 5.302957,10.28145 11.847866,10.28145 6.54491,0 11.84786,-4.60183 11.84786,-10.28145 z m 0,0"
     id="path33-5-5"
     style="fill:#ff6e6e;fill-opacity:1" />
  <path
     fill-rule="nonzero"
     fill="#ccccff"
     fill-opacity="1"
     stroke-width="1.33263"
     stroke-linecap="butt"
     stroke-linejoin="miter"
     stroke="#333333"
     stroke-opacity="1"
     stroke-miterlimit="10"
     d="m 70.663749,119.73184 c 0,-5.67959 -5.302944,-10.28144 -11.847856,-10.28144 -6.544912,0 -11.847866,4.60185 -11.847866,10.28144 0,5.67961 5.302954,10.28145 11.847866,10.28145 6.544912,0 11.847856,-4.60184 11.847856,-10.28145 z m 0,0"
     id="path33-5-5-6"
     style="fill:#ff6e6e;fill-opacity:0.470686" />
  <path
     fill-rule="nonzero"
     fill="#ccccff"
     fill-opacity="1"
     stroke-width="1.33263"
     stroke-linecap="butt"
     stroke-linejoin="miter"
     stroke="#333333"
     stroke-opacity="1"
     stroke-miterlimit="10"
     d="m 105.3246,154.40053 c 0,-5.67961 -5.30952,-10.28143 -11.854423,-10.28143 -6.538348,0 -11.847865,4.60182 -11.847865,10.28143 0,5.67961 5.309517,10.28145 11.847865,10.28145 6.544903,0 11.854423,-4.60184 11.854423,-10.28145 z m 0,0"
     id="path34" />
  <path
     fill-rule="nonzero"
     fill="#ccccff"
     fill-opacity="1"
     stroke-width="1.33263"
     stroke-linecap="butt"
     stroke-linejoin="miter"
     stroke="#333333"
     stroke-opacity="1"
     stroke-miterlimit="10"
     d="m 86.248428,129.57223 c 0,-5.6796 -5.302953,-10.28714 -11.847866,-10.28714 -6.544912,0 -11.847865,4.60754 -11.847865,10.28714 0,5.67962 5.302953,10.28145 11.847865,10.28145 6.544913,0 11.847866,-4.60183 11.847866,-10.28145 z m 0,0"
     id="path35" />
  <g
     id="g38"
     transform="matrix(1.6822263,0,0,1.4598172,-47.406547,-93.831914)">
    <path
       fill-rule="nonzero"
       fill="#ccccff"
       fill-opacity="0.5"
       stroke-width="0.85039"
       stroke-linecap="butt"
       stroke-linejoin="miter"
       stroke="#333333"
       stroke-opacity="0.5"
       stroke-miterlimit="10"
       d="m 80.055207,184.51201 c 0,-3.89062 -3.15625,-7.04687 -7.046875,-7.04687 -3.886719,0 -7.042969,3.15625 -7.042969,7.04687 0,3.88672 3.15625,7.04297 7.042969,7.04297 3.890625,0 7.046875,-3.15625 7.046875,-7.04297 z m 0,0"
       id="path37-6"
       style="fill:#ff6e6e;fill-opacity:1" />
    <path
       sodipodi:type="star"
       style="fill:#ffc9c9;fill-opacity:1;stroke:#000000;stroke-width:0.75"
       id="path44-2"
       inkscape:flatsided="false"
       sodipodi:sides="5"
       sodipodi:cx="69.317039"
       sodipodi:cy="14.710616"
       sodipodi:r1="5.5115647"
       sodipodi:r2="2.7557824"
       sodipodi:arg1="1.0471976"
       sodipodi:arg2="1.6755161"
       inkscape:rounded="0"
       inkscape:randomized="0"
       d="m 72.072822,19.483771 -3.04384,-2.032469 -3.399899,1.355205 0.992395,-3.522932 -2.339503,-2.814714 3.657173,-0.144822 1.954007,-3.0947947 1.267863,3.4334267 3.547145,0.902027 -2.873591,2.266796 z"
       inkscape:transform-center-x="-0.17802944"
       inkscape:transform-center-y="-0.35410835"
       transform="translate(3.5323926,169.75982)" />
  </g>
  <path
     fill-rule="nonzero"
     fill="#000000"
     fill-opacity="1"
     d="m 66.61233,93.695896 c -3.263519,0.520725 -8.870025,0.68643 -13.061393,0.09464 l 3.293429,7.432354 c 2.660238,-2.87573 6.943166,-6.014893 9.767964,-7.527055"
     id="path37-1-7"
     style="stroke-width:1.56708" />
  <path
     style="fill:none;stroke:#000000;stroke-width:1.17531;stroke-dasharray:2.35062, 1.17531, 0.587655, 1.17531"
     d="M 64.228744,178.00373 C -19.404383,152.73176 56.014776,91.495822 61.988573,96.031826"
     id="path36" />
  <text
     xml:space="preserve"
     transform="scale(0.75)"
     id="text38"
     style="fill:#ff6e6e;text-orientation:auto;stroke:#000000;stroke-dasharray:2, 1, 0.5, 1;writing-mode:lr-tb;direction:ltr;fill-opacity:0.47068593;white-space:pre;shape-inside:url(#rect38)" />
  <path
     style="fill:none;fill-opacity:0.470686;stroke:#000000;stroke-width:1.17531;stroke-dasharray:2.35062, 1.17531, 0.587655, 1.17531"
     d="m 41.453649,166.66375 c -15.307848,-34.66796 8.587332,-29.15996 8.587332,-29.15996 l 4.106982,-8.09998"
     id="path41" />
  <text
     xml:space="preserve"
     style="font-size:9px;writing-mode:lr-tb;direction:ltr;fill:none;fill-opacity:0.470686;stroke:#000000;stroke-width:0.75;stroke-dasharray:1.5, 0.75, 0.375, 0.75"
     x="41.541122"
     y="189.95622"
     id="text41"><tspan
       sodipodi:role="line"
       id="tspan41"
       style="stroke-width:0.75"></tspan></text>
  <text
     xml:space="preserve"
     style="font-size:9px;writing-mode:lr-tb;direction:ltr;fill:none;fill-opacity:0.470686;stroke:#000000;stroke-width:0.75;stroke-dasharray:1.5, 0.75, 0.375, 0.75"
     x="40.659946"
     y="187.06093"
     id="text42"><tspan
       sodipodi:role="line"
       id="tspan42"
       style="stroke-width:0.75"
       x="40.659946"
       y="187.06093" /></text>
  <text
     xml:space="preserve"
     transform="scale(0.75)"
     id="text43"
     style="writing-mode:lr-tb;direction:ltr;white-space:pre;shape-inside:url(#rect43);fill:none;fill-opacity:0.470686;stroke:#000000;stroke-dasharray:2, 1, 0.5, 1"><tspan
       x="122.35742"
       y="262.54883"
       id="tspan2"><tspan
         dx="0 11.865234 7.6054688 3.3339844"
         id="tspan1">Whip</tspan></tspan></text>
  <text
     xml:space="preserve"
     style="font-size:9px;writing-mode:lr-tb;direction:ltr;fill:none;fill-opacity:0.470686;stroke:#000000;stroke-width:0.75;stroke-dasharray:1.5, 0.75, 0.375, 0.75"
     x="42.170532"
     y="188.57152"
     id="text44"><tspan
       sodipodi:role="line"
       id="tspan44"
       style="stroke-width:0.75"></tspan></text>
  <text
     xml:space="preserve"
     style="font-size:9px;writing-mode:lr-tb;direction:ltr;fill:none;fill-opacity:0.470686;stroke:#000000;stroke-width:0.75;stroke-dasharray:1.5, 0.75, 0.375, 0.75"
     x="37.009361"
     y="186.17975"
     id="text45"><tspan
       sodipodi:role="line"
       id="tspan45"
       style="stroke-width:0.75"
       x="37.009361"
       y="186.17975" /></text>
  <text
     xml:space="preserve"
     transform="matrix(1.2616697,0,0,1.094863,-52.725316,-95.582466)"
     id="text46"
     style="font-style:normal;font-variant:normal;font-weight:normal;font-stretch:normal;font-size:6.36835px;font-family:'Adwaita Sans';-inkscape-font-specification:'Adwaita Sans, @opsz=32,wght=500';font-variant-ligatures:no-common-ligatures discretionary-ligatures historical-ligatures;font-variant-caps:normal;font-variant-numeric:normal;font-variant-east-asian:normal;font-variation-settings:'opsz' 32, 'wght' 500;writing-mode:lr-tb;direction:ltr;white-space:pre;shape-inside:url(#rect46);fill:#000000;fill-opacity:1;stroke:none;stroke-dasharray:2, 1, 0.5, 1"><tspan
       x="80.226562"
       y="261.72101"
       id="tspan3">1: Whip</tspan></text>
  <text
     xml:space="preserve"
     style="font-style:normal;font-variant:normal;font-weight:normal;font-stretch:normal;font-size:7.48479px;font-family:'Adwaita Sans';-inkscape-font-specification:'Adwaita Sans, @opsz=32,wght=500';font-variant-ligatures:no-common-ligatures discretionary-ligatures historical-ligatures;font-variant-caps:normal;font-variant-numeric:normal;font-variant-east-asian:normal;font-variation-settings:'opsz' 32, 'wght' 500;writing-mode:lr-tb;direction:ltr;fill:#000000;fill-opacity:1;stroke:none;stroke-width:1.17531;stroke-dasharray:2.35062, 1.17531, 0.587655, 1.17531"
     x="10.867644"
     y="170.83856"
     id="text47"
     transform="scale(1.0734775,0.93155189)"><tspan
       sodipodi:role="line"
       style="font-style:normal;font-variant:normal;font-weight:normal;font-stretch:normal;font-size:7.48479px;font-family:'Adwaita Sans';-inkscape-font-specification:'Adwaita Sans, @opsz=32,wght=500';font-variant-ligatures:no-common-ligatures discretionary-ligatures historical-ligatures;font-variant-caps:normal;font-variant-numeric:normal;font-variant-east-asian:normal;font-variation-settings:'opsz' 32, 'wght' 500;fill:#000000;fill-opacity:1;stroke:none;stroke-width:1.17531"
       x="10.867644"
       y="170.83856"
       id="tspan48">2: Transition</tspan></text>
  <text
     xml:space="preserve"
     transform="matrix(1.2616697,0,0,1.094863,-27.102207,-89.364873)"
     id="text49"
     style="font-style:normal;font-variant:normal;font-weight:normal;font-stretch:normal;font-size:6.36835px;font-family:'Adwaita Sans';-inkscape-font-specification:'Adwaita Sans, @opsz=32,wght=500';font-variant-ligatures:no-common-ligatures discretionary-ligatures historical-ligatures;font-variant-caps:normal;font-variant-numeric:normal;font-variant-east-asian:normal;font-variation-settings:'opsz' 32, 'wght' 500;writing-mode:lr-tb;direction:ltr;white-space:pre;shape-inside:url(#rect49);fill:#000000;fill-opacity:1;stroke:none;stroke-dasharray:2, 1, 0.5, 1"><tspan
       x="47.125"
       y="213.09991"
       id="tspan4">3: Banana
</tspan><tspan
       x="47.125"
       y="227.31085"
       id="tspan6"><tspan
         dx="0 4.0766149 1.4813828 3.5635395 3.3987341"
         id="tspan5">Block</tspan></tspan></text>
  <text
     xml:space="preserve"
     style="font-style:normal;font-variant:normal;font-weight:normal;font-stretch:normal;font-size:7.48479px;font-family:'Adwaita Sans';-inkscape-font-specification:'Adwaita Sans, @opsz=32,wght=500';font-variant-ligatures:no-common-ligatures discretionary-ligatures historical-ligatures;font-variant-caps:normal;font-variant-numeric:normal;font-variant-east-asian:normal;font-variation-settings:'opsz' 32, 'wght' 500;writing-mode:lr-tb;direction:ltr;fill:#000000;fill-opacity:1;stroke:none;stroke-width:1.17531;stroke-dasharray:2.35062, 1.17531, 0.587655, 1.17531"
     x="57.387135"
     y="114.28954"
     id="text50"
     transform="scale(1.0734775,0.93155189)"><tspan
       sodipodi:role="line"
       id="tspan50"
       style="font-style:normal;font-variant:normal;font-weight:normal;font-stretch:normal;font-size:7.48479px;font-family:'Adwaita Sans';-inkscape-font-specification:'Adwaita Sans, @opsz=32,wght=500';font-variant-ligatures:no-common-ligatures discretionary-ligatures historical-ligatures;font-variant-caps:normal;font-variant-numeric:normal;font-variant-east-asian:normal;font-variation-settings:'opsz' 32, 'wght' 500;fill:#000000;fill-opacity:1;stroke:none;stroke-width:1.17531"
       x="57.387135"
       y="114.28954">4: Screen</tspan></text>
</svg>
